inDegrees=no
num_controls=7
num_derivatives=13
num_iterations=96
num_multipliers=7
num_parameters=0
num_slacks=7
num_states=26
objective=4.985689
objective_accelerations=0.549214
objective_balance=0.017943
objective_effort=0.150576
objective_height=4.192900
objective_ligament=0.075057
solver_duration=1060.710219
status=Solve_Succeeded
success=true
DataType=double
version=3
OpenSimVersion=4.4-2022-07-23-0e9fedc
endheader
time	/jointset/ground_pelvis/pelvis_tilt/value	/jointset/ground_pelvis/pelvis_tx/value	/jointset/ground_pelvis/pelvis_ty/value	/jointset/hip_l/hip_flexion_l/value	/jointset/hip_l/hip_adduction_l/value	/jointset/hip_l/hip_rotation_l/value	/jointset/back/lumbar_extension/value	/jointset/patellofemoral_l/patellar_flexion_l/value	/jointset/knee_l/knee_flexion_l/value	/jointset/knee_l/knee_adduction_l/value	/jointset/knee_l/knee_rotation_l/value	/jointset/ankle_l/ankle_angle_l/value	/jointset/subtalar_l/subtalar_angle_l/value	/jointset/ground_pelvis/pelvis_tilt/speed	/jointset/ground_pelvis/pelvis_tx/speed	/jointset/ground_pelvis/pelvis_ty/speed	/jointset/hip_l/hip_flexion_l/speed	/jointset/hip_l/hip_adduction_l/speed	/jointset/hip_l/hip_rotation_l/speed	/jointset/back/lumbar_extension/speed	/jointset/patellofemoral_l/patellar_flexion_l/speed	/jointset/knee_l/knee_flexion_l/speed	/jointset/knee_l/knee_adduction_l/speed	/jointset/knee_l/knee_rotation_l/speed	/jointset/ankle_l/ankle_angle_l/speed	/jointset/subtalar_l/subtalar_angle_l/speed	/forceset/tau_hip_flexion_l	/forceset/tau_hip_adduction_l	/forceset/tau_hip_rotation_l	/forceset/tau_knee_flexion_l	/forceset/tau_ankle_angle_l	/forceset/tau_subtalar_angle_l	/forceset/tau_lumbar_extension	lambda_cid13_p0	lambda_cid13_p1	lambda_cid13_p2	lambda_cid13_p3	lambda_cid13_p4	lambda_cid13_p5	lambda_cid14_p0	/jointset/ground_pelvis/pelvis_tilt/accel	/jointset/ground_pelvis/pelvis_tx/accel	/jointset/ground_pelvis/pelvis_ty/accel	/jointset/hip_l/hip_flexion_l/accel	/jointset/hip_l/hip_adduction_l/accel	/jointset/hip_l/hip_rotation_l/accel	/jointset/back/lumbar_extension/accel	/jointset/patellofemoral_l/patellar_flexion_l/accel	/jointset/knee_l/knee_flexion_l/accel	/jointset/knee_l/knee_adduction_l/accel	/jointset/knee_l/knee_rotation_l/accel	/jointset/ankle_l/ankle_angle_l/accel	/jointset/subtalar_l/subtalar_angle_l/accel	gamma_cid13_p0	gamma_cid13_p1	gamma_cid13_p2	gamma_cid13_p3	gamma_cid13_p4	gamma_cid13_p5	gamma_cid14_p0
1.5	-0.304619009846905	0.07694290593682608	0.8135621950847932	0.8720665354286984	-0.364076482493834	-0.07497633604219203	-0.3144602893496295	0.7277974329164886	0.7277974329165432	-0.05900660965584813	-0.1736333453392961	0.2706664331120771	0.1458976013660393	0.3837202814143824	0.2288239102228734	0.387681453011073	-1.953234068186069	0.01628507205068714	-0.5823504642778716	0.617458034955203	-1.961310446396123	-1.961310446395877	-0.2453607022455751	0.01924303441498131	-0.5486575690824175	-0.1883338931836986	-0.115023061806738	0.03706867728317239	0.006371455370414978	-0.122049587017373	-0.05245538041354141	0.008763973809753323	0.1146792444929519	-40.55519372072252	0.773775839911788	2.475161019987604	-0.8936907451816396	-434.3918364738315	-58.28913684915315	-14.06472664306927	0.3482185127230564	0.4123097965233614	-0.6243261797089892	-1.01641931668827	0.2568931466952499	-0.2797916464901517	1.300838384879888	-0.9921885122822564	-0.9921885122822448	-0.3647785408037392	0.3453512071279565	-0.399169777371418	0.3654738119432968	8.220246135049873e-08	3.939285135736955e-06	-1.101958045984278e-06	4.67839950826251e-07	3.501417610420847e-07	2.414147164933137e-06	4.439503175269594e-07
1.51	-0.3007645317877451	0.0792513353905071	0.8174070434845218	0.8524851165441955	-0.363901928839098	-0.08081558032048419	-0.3082223507009011	0.7081367072296694	0.7081367072299267	-0.06147944473640166	-0.1734269266331549	0.2651599789890687	0.1440310089343433	0.3871133981965183	0.2328131781574279	0.3812070860049226	-1.96276802090993	0.01862345091883477	-0.5853976105509585	0.6300126853131209	-1.970571757638316	-1.970571757638157	-0.2492281409058564	0.02207640802721023	-0.5525734098587607	-0.1849747061359189	-0.1113669899737076	0.03582620154779948	0.007026329001418234	-0.1192255602000036	-0.05249772490123369	0.007766813560064626	0.1115050444694572	-40.5149912094971	1.073942429269159	2.57106918805083	-0.523656900450819	-431.9208941025073	-58.0403085276187	-14.85858606312053	0.3255824186377714	0.3850016005227185	-0.6710999492593376	-0.8796151229364039	0.2217487090074254	-0.3017000696319025	1.215226939245337	-0.8537410084325053	-0.8537410084454294	-0.4004956605110282	0.2575822647758245	-0.3786818277943148	0.3221604581741417	6.482709225988597e-08	3.734498485387347e-06	-9.691394898595669e-07	4.450475259904666e-07	3.274472353715091e-07	2.249556849577391e-06	4.102397332833549e-07
1.52	-0.2968779777292638	0.0815982107852537	0.821184726616547	0.8328168117578983	-0.3637041037052764	-0.08668220085186751	-0.3018623758329942	0.6883912407149704	0.688391240715055	-0.06399150803048345	-0.1731911238252258	0.2596161883382888	0.1421982122345183	0.3901354812858547	0.2365130984359866	0.3742483994708705	-1.970611248541838	0.02093936787231507	-0.5878257149005653	0.6418652787909632	-1.978258612010303	-1.978258612010233	-0.2532063448409791	0.02511985469966885	-0.5561248746362483	-0.1815747468089687	-0.1077109181405403	0.03458372581248373	0.007681202630070254	-0.1164015333825714	-0.05254006938891759	0.006769653310492176	0.1083308444460911	-40.47243705774534	1.370969775750078	2.670594344327544	-0.1761169354712915	-429.4291455061664	-57.82946545855719	-15.65250893838537	0.2740117741625072	0.3544402653244664	-0.7211900852893109	-0.6782742982976867	0.2524007637617608	-0.155983261794491	1.160427008864402	-0.6772971382413108	-0.677297138241311	-0.3869315957721599	0.3873658191735274	-0.326294577599939	0.3736282677774006	4.025707319385977e-08	3.6481608389997e-06	-7.910600324686544e-07	4.430751842681172e-07	2.822774055934353e-07	2.110197519596216e-06	3.824721524663326e-07
1.53	-0.2929631473771082	0.08398063715435403	0.8248904414086863	0.8130788311307029	-0.3634828025668623	-0.09257119010054909	-0.2953870448936618	0.6685772334343165	0.6685772334341029	-0.06654229524037072	-0.1729242893301812	0.2540390896464562	0.1404003475484977	0.3927694018645705	0.2399233478818855	0.366821212407646	-1.976693161815718	0.02334045976114624	-0.589930070434072	0.6531036679784706	-1.984253129343004	-1.98425312934307	-0.2568832164562401	0.02825513334703043	-0.559209075117048	-0.1779518073382735	-0.1042518068724854	0.03362450930920041	0.008269966085083406	-0.1134691539443497	-0.05270675890020655	0.005512714301034932	0.1053221931000374	-40.50298556144772	1.805927275367198	2.73406963469551	0.2006149652999787	-427.1814221507838	-57.34769116342264	-16.4385508106693	0.2489130099981634	0.3270879620024159	-0.7644497469073709	-0.5293857647032707	0.2365767313422641	-0.2310515640191103	1.090958708743483	-0.5171417164048291	-0.5171417164250115	-0.3473399500401861	0.2777926564974937	-0.286485267842951	0.3630542434525817	8.042738528956892e-09	3.687675259321636e-06	-5.648908674824032e-07	4.632241808537923e-07	2.132275652011449e-07	1.99764611157552e-06	3.61019012790054e-07
1.54	-0.2890238116571472	0.08639572015346961	0.8285196909841759	0.7932887841861871	-0.363236967843595	-0.09847990087756349	-0.2888022472954498	0.6487119584429063	0.6487119584429983	-0.06912770616625052	-0.1726258652955878	0.2484337484529111	0.1386399977485282	0.3950365548543024	0.2430444244390346	0.3589553561413862	-1.981024512000324	0.02584608484599993	-0.5917700205632369	0.6637586105679857	-1.98851215410053	-1.988512154100732	-0.2601310882970577	0.03143776275366397	-0.5617733749787736	-0.1740717695980929	-0.1007926956045275	0.03266529280568	0.008858729545333613	-0.1105367745064038	-0.05287344841164156	0.00425577529113886	0.1023135417539707	-40.5345521923237	2.238657435195187	2.80064828273808	0.5654347836175877	-424.9714852957903	-56.90562648718666	-17.21158624304	0.2006582563649051	0.2966056875748241	-0.8089239258963485	-0.32816168044336	0.2733074029659003	-0.103102180926439	1.043737689265572	-0.3301986232061797	-0.3301986232061536	-0.3011316408835788	0.3968359710277285	-0.2223144537847186	0.4250479216745678	2.890679907286827e-08	3.801207155544463e-06	-8.68987980408998e-07	4.702504498802146e-07	2.661974225667285e-07	2.196421502497404e-06	4.070071051520415e-07
